<?xml version="1.0" encoding="utf-8"?>
<!-- Generator: Adobe Illustrator 28.1.0, SVG Export Plug-In . SVG Version: 6.00 Build 0)  -->
<svg version="1.1" id="Calque_1" xmlns="http://www.w3.org/2000/svg" xmlns:xlink="http://www.w3.org/1999/xlink" x="0px" y="0px"
	 viewBox="0 0 200 200" style="enable-background:new 0 0 200 200;" xml:space="preserve">
<style type="text/css">
	.st0{fill:#021F42;}
</style>
<g>
	<path class="st0" d="M135,187.5c-34.4,0-62.3-28-62.3-62.3c0-30.5,16.5-59.4,30.4-78.2c14.9-20.3,29.7-33.3,30.3-33.8
		c0.9-0.8,2.4-0.8,3.3,0c2.5,2.2,60.7,55,60.7,112C197.3,159.5,169.4,187.5,135,187.5z M135,18.4c-9.6,9-57.3,56.2-57.3,106.8
		c0,31.6,25.7,57.3,57.3,57.3s57.3-25.7,57.3-57.3C192.3,75.6,144.6,27.5,135,18.4z"/>
	<path class="st0" d="M116.9,109.3L116.9,109.3c-3.5,0-6.8-1.4-9.3-3.9c-5.1-5.1-5-13.4,0.1-18.4c2.5-2.4,5.7-3.8,9.2-3.8
		c0,0,0,0,0.1,0c3.5,0,6.8,1.4,9.2,3.9c2.5,2.5,3.8,5.8,3.8,9.2c0,3.5-1.4,6.8-3.9,9.2C123.6,108,120.4,109.3,116.9,109.3z
		 M116.9,88.3c-2.1,0-4.1,0.8-5.7,2.3c-3.2,3.1-3.2,8.2-0.1,11.4c1.5,1.5,3.5,2.4,5.7,2.4l0,0c2.1,0,4.1-0.8,5.7-2.3l0,0
		c1.5-1.5,2.4-3.5,2.4-5.7s-0.8-4.2-2.3-5.7C121.1,89.1,119.1,88.3,116.9,88.3L116.9,88.3z"/>
	<path class="st0" d="M152.4,145.2c-3.4,0-6.7-1.3-9.3-3.9c-2.5-2.5-3.8-5.8-3.8-9.2c0-3.5,1.4-6.8,3.9-9.2c2.5-2.4,5.7-3.8,9.2-3.8
		c0,0,0,0,0.1,0c3.5,0,6.8,1.4,9.2,3.9c2.5,2.5,3.8,5.8,3.8,9.2s-1.4,6.8-3.9,9.2l0,0C159.1,143.9,155.7,145.2,152.4,145.2z
		 M152.4,124.1c-2.1,0-4.1,0.8-5.7,2.3c-1.5,1.5-2.4,3.5-2.4,5.7c0,2.1,0.8,4.2,2.3,5.7c3.1,3.1,8.2,3.2,11.4,0.1
		c1.5-1.5,2.4-3.5,2.4-5.7c0-2.1-0.8-4.2-2.3-5.7C156.6,125,154.6,124.1,152.4,124.1L152.4,124.1z M159.8,139.6L159.8,139.6
		L159.8,139.6z"/>
	<path class="st0" d="M107.8,143.4c-0.6,0-1.3-0.2-1.8-0.7c-1-1-1-2.6,0-3.5L159.7,86c1-1,2.6-1,3.5,0c1,1,1,2.6,0,3.5l-53.7,53.2
		C109.1,143.1,108.4,143.4,107.8,143.4z"/>
</g>
</svg>
