<?xml version="1.0" encoding="utf-8"?>
<!-- Generator: Adobe Illustrator 28.1.0, SVG Export Plug-In . SVG Version: 6.00 Build 0)  -->
<svg version="1.1" id="Calque_1" xmlns="http://www.w3.org/2000/svg" xmlns:xlink="http://www.w3.org/1999/xlink" x="0px" y="0px"
	 viewBox="0 0 200 200" style="enable-background:new 0 0 200 200;" xml:space="preserve">
<style type="text/css">
	.st0{fill:#021F42;}
</style>
<g>
	<g>
		<path class="st0" d="M100.5,146.4c-4.5,0-9.2-0.7-13.7-2.1c-24.1-7.6-37.6-33.4-30-57.5c7.6-24.1,33.4-37.6,57.5-30
			c11.7,3.7,21.2,11.7,26.9,22.5c5.7,10.8,6.8,23.3,3.1,34.9l0,0C138.2,133.9,120,146.4,100.5,146.4z M100.6,59.7
			c-17.4,0-33.5,11.2-39,28.6c-6.8,21.5,5.2,44.5,26.7,51.2c10.4,3.3,21.5,2.3,31.1-2.8c9.7-5.1,16.8-13.6,20.1-24
			s2.3-21.5-2.8-31.1c-5.1-9.7-13.6-16.8-24-20.1C108.8,60.3,104.6,59.7,100.6,59.7z"/>
		<path class="st0" d="M155,74.3c-0.9,0-1.8-0.5-2.2-1.3c-0.6-1.2-0.2-2.7,1.1-3.4l19.7-10.3c1.2-0.6,2.7-0.2,3.4,1.1
			c0.6,1.2,0.2,2.7-1.1,3.4L156.2,74C155.8,74.2,155.4,74.3,155,74.3z"/>
		<path class="st0" d="M71.8,48.6c-0.9,0-1.8-0.5-2.2-1.3L59.3,27.5c-0.6-1.2-0.2-2.7,1.1-3.4s2.7-0.2,3.4,1.1L74,44.9
			c0.6,1.2,0.2,2.7-1.1,3.4C72.6,48.5,72.2,48.6,71.8,48.6z"/>
		<path class="st0" d="M118.7,44.2c-0.2,0-0.5,0-0.8-0.1c-1.3-0.4-2.1-1.8-1.6-3.1l9.2-29.5c0.4-1.3,1.8-2.1,3.1-1.6
			c1.3,0.4,2.1,1.8,1.6,3.1l-9.2,29.5C120.8,43.5,119.8,44.2,118.7,44.2z"/>
		<path class="st0" d="M41.7,84.9c-0.2,0-0.5,0-0.8-0.1l-29.5-9.2c-1.3-0.4-2.1-1.8-1.6-3.1c0.4-1.3,1.8-2.1,3.1-1.6L42.4,80
			c1.3,0.4,2,1.8,1.6,3.1C43.7,84.2,42.8,84.9,41.7,84.9z"/>
		<path class="st0" d="M24.9,139.2c-0.9,0-1.8-0.5-2.3-1.4c-0.6-1.2-0.1-2.7,1.2-3.3L44,125c1.2-0.6,2.7-0.1,3.3,1.2
			c0.6,1.2,0.1,2.7-1.2,3.3L26,139C25.6,139.2,25.3,139.2,24.9,139.2z"/>
		<path class="st0" d="M136.7,178.7c-0.9,0-1.8-0.5-2.3-1.4l-9.5-20.1c-0.6-1.2-0.1-2.7,1.2-3.3s2.7-0.1,3.3,1.2l9.5,20.1
			c0.6,1.2,0.1,2.7-1.2,3.3C137.5,178.6,137.1,178.7,136.7,178.7z"/>
		<path class="st0" d="M69.7,190.3c-0.3,0-0.6-0.1-0.8-0.1c-1.3-0.5-2-1.9-1.5-3.2l10.4-29.1c0.5-1.3,1.9-2,3.2-1.5
			c1.3,0.5,2,1.9,1.5,3.2l-10.4,29.1C71.7,189.6,70.8,190.3,69.7,190.3z"/>
		<path class="st0" d="M187.8,133.9c-0.3,0-0.6-0.1-0.8-0.1l-29.1-10.4c-1.3-0.5-2-1.9-1.5-3.2c0.5-1.3,1.9-2,3.2-1.5l29.1,10.4
			c1.3,0.5,2,1.9,1.5,3.2C189.8,133.3,188.8,133.9,187.8,133.9z"/>
	</g>
	<g>
		<path class="st0" d="M85.7,116.3c-3.5,0-6.1-0.7-7.8-2c-1.7-1.3-2.8-2.9-3.3-4.8s-0.7-3.9-0.7-6.4V87.4c0-0.9,0.7-1.6,1.6-1.6h0.8
			c0.9,0,1.6,0.7,1.6,1.6v15.7c0,3.9,0.7,6.5,2,7.8s3.3,1.9,5.8,1.9c2.6,0,4.5-0.6,5.8-1.9s2-3.8,2-7.8V87.4c0-0.9,0.7-1.6,1.6-1.6
			h0.8c0.9,0,1.6,0.7,1.6,1.6v15.8c0,3.6-0.4,6.3-1.3,8s-2.2,3-3.9,3.9C90.6,115.9,88.4,116.3,85.7,116.3z"/>
		<path class="st0" d="M127.7,88l-10.4,26.8c-0.2,0.6-0.8,1-1.5,1h-1.9c-0.7,0-1.2-0.4-1.5-1L102,88c-0.4-1.1,0.4-2.2,1.5-2.2h0.8
			c0.7,0,1.3,0.4,1.5,1.1l7.6,20.6c0.5,1.4,2.5,1.4,3,0l7.6-20.6c0.2-0.6,0.8-1.1,1.5-1.1h0.8C127.3,85.8,128.1,86.9,127.7,88z"/>
	</g>
</g>
</svg>
