<?xml version="1.0" encoding="utf-8"?>
<!-- Generator: Adobe Illustrator 28.1.0, SVG Export Plug-In . SVG Version: 6.00 Build 0)  -->
<svg version="1.1" id="Calque_1" xmlns="http://www.w3.org/2000/svg" xmlns:xlink="http://www.w3.org/1999/xlink" x="0px" y="0px"
	 viewBox="0 0 600 200" style="enable-background:new 0 0 600 200;" xml:space="preserve">
<style type="text/css">
	.st0{fill:#021F42;}
</style>
<g>
	<path class="st0" d="M401.5,121.9c0.5,0,1.1-0.1,1.6-0.4l36.7-19.2c1.7-0.9,2.4-3,1.5-4.7c-0.9-1.7-3-2.4-4.7-1.5l-36.7,19.2
		c-1.7,0.9-2.4,3-1.5,4.7C399,121.3,400.2,121.9,401.5,121.9z"/>
	<path class="st0" d="M243.2,72.2c0.6,1.2,1.8,1.9,3.1,1.9c0.6,0,1.1-0.1,1.6-0.4c1.7-0.9,2.4-3,1.5-4.7l-19.2-36.7
		c-0.9-1.7-3-2.4-4.7-1.5c-1.7,0.9-2.4,3-1.5,4.7L243.2,72.2z"/>
	<path class="st0" d="M332.8,65.7c0.4,0.1,0.7,0.2,1,0.2c1.5,0,2.9-1,3.3-2.5l17.2-54.9c0.6-1.8-0.5-3.8-2.3-4.4
		c-1.9-0.6-3.8,0.4-4.4,2.3l-17.2,54.9C329.9,63.2,330.9,65.2,332.8,65.7z"/>
	<path class="st0" d="M134.4,124.4l54.9,17.2c0.4,0.1,0.7,0.2,1.1,0.2c1.5,0,2.9-1,3.3-2.4c0.6-1.8-0.4-3.8-2.3-4.4l-54.9-17.2
		c-1.8-0.6-3.8,0.4-4.4,2.3C131.5,121.8,132.5,123.8,134.4,124.4z"/>
	<path class="st0" d="M572.1,189l-125.6-7.1c-20.8-1.2-41.7-2.1-62.6-2.8c1.5-17.8-2.7-35.7-12.1-51.1
		c-10.6-17.3-27.2-30.2-46.6-36.3C303.8,85,280.9,87,261,97.4s-34.6,28-41.4,49.4c-3.3,10.6-4.5,21.4-3.6,32.3
		c-20.9,0.7-41.8,1.6-62.6,2.8L27.9,189c-1.9,0.1-3.4,1.8-3.3,3.7c0.1,1.9,1.8,3.4,3.7,3.3l125.6-7.1c97-5.5,195.3-5.5,292.3,0
		l125.6,7.1c0.1,0,0.1,0,0.2,0c1.8,0,3.4-1.4,3.5-3.3C575.5,190.8,574,189.1,572.1,189z M223,178.9c-0.9-10.1,0.2-20.1,3.3-29.9
		c6.2-19.7,19.7-35.8,37.9-45.3s39.2-11.4,58.9-5.2c34.6,10.9,57,44.9,53.8,80.5C325.7,177.4,274.3,177.4,223,178.9z"/>
</g>
</svg>
