<?xml version="1.0" encoding="utf-8"?>
<!-- Generator: Adobe Illustrator 28.1.0, SVG Export Plug-In . SVG Version: 6.00 Build 0)  -->
<svg version="1.1" id="Calque_1" xmlns="http://www.w3.org/2000/svg" xmlns:xlink="http://www.w3.org/1999/xlink" x="0px" y="0px"
	 viewBox="0 0 600 200" style="enable-background:new 0 0 600 200;" xml:space="preserve">
<style type="text/css">
	.st0{fill:#BAF0FC;}
</style>
<g>
	<path class="st0" d="M401.49,121.94c0.55,0,1.1-0.13,1.62-0.4l36.72-19.17c1.71-0.89,2.38-3.01,1.48-4.72
		c-0.89-1.71-3.01-2.38-4.72-1.48l-36.72,19.17c-1.71,0.89-2.38,3.01-1.48,4.72C399.01,121.26,400.23,121.94,401.49,121.94z"/>
	<path class="st0" d="M243.25,72.22c0.62,1.2,1.84,1.88,3.11,1.88c0.55,0,1.1-0.13,1.62-0.4c1.71-0.89,2.38-3.01,1.48-4.72
		l-19.17-36.72c-0.89-1.71-3.01-2.38-4.72-1.48c-1.71,0.89-2.38,3.01-1.48,4.72L243.25,72.22z"/>
	<path class="st0" d="M332.78,65.73c0.35,0.11,0.7,0.16,1.05,0.16c1.49,0,2.87-0.96,3.34-2.45L354.4,8.55
		c0.58-1.84-0.45-3.81-2.29-4.39c-1.85-0.58-3.81,0.45-4.39,2.29l-17.24,54.89C329.91,63.19,330.93,65.15,332.78,65.73z"/>
	<path class="st0" d="M134.36,124.37l54.89,17.24c0.35,0.11,0.7,0.16,1.05,0.16c1.49,0,2.87-0.96,3.34-2.45
		c0.58-1.84-0.45-3.81-2.29-4.39l-54.89-17.24c-1.84-0.58-3.81,0.45-4.39,2.29C131.49,121.83,132.51,123.79,134.36,124.37z"/>
	<path class="st0" d="M572.1,189.01l-125.56-7.12c-20.81-1.18-41.68-2.09-62.59-2.77c1.49-17.77-2.72-35.68-12.13-51.05
		c-10.62-17.34-27.17-30.25-46.59-36.35c-21.47-6.74-44.28-4.72-64.23,5.69c-19.95,10.41-34.65,27.97-41.39,49.44
		c-3.32,10.57-4.52,21.4-3.6,32.26c-20.9,0.68-41.77,1.59-62.57,2.77L27.9,189.01c-1.93,0.11-3.41,1.76-3.3,3.69
		c0.11,1.93,1.77,3.42,3.69,3.3l125.56-7.12c96.98-5.5,195.32-5.5,292.29,0l125.56,7.12c0.07,0,0.13,0.01,0.2,0.01
		c1.84,0,3.39-1.44,3.49-3.3C575.51,190.77,574.03,189.12,572.1,189.01z M223.03,178.89c-0.9-10.08,0.18-20.13,3.27-29.94
		c6.18-19.69,19.66-35.79,37.95-45.34c18.29-9.55,39.21-11.4,58.9-5.22c34.6,10.87,56.96,44.86,53.8,80.5
		C325.71,177.37,274.27,177.37,223.03,178.89z"/>
</g>
</svg>
