<?xml version="1.0" encoding="utf-8"?>
<!-- Generator: Adobe Illustrator 28.1.0, SVG Export Plug-In . SVG Version: 6.00 Build 0)  -->
<svg version="1.1" id="Calque_1" xmlns="http://www.w3.org/2000/svg" xmlns:xlink="http://www.w3.org/1999/xlink" x="0px" y="0px"
	 viewBox="0 0 200 200" style="enable-background:new 0 0 200 200;" xml:space="preserve">
<style type="text/css">
	.st0{fill:#021F42;}
</style>
<g>
	<path class="st0" d="M171,115.9H41c-18.2,0-33-14.8-33-33s14.8-33,33-33c1.6,0,3.2,0.1,4.8,0.3c0-0.3,0-0.6,0-0.9
		c0-13.8,11.2-24.9,24.9-24.9c4.3,0,8.5,1.1,12.2,3.2c7.8-13.7,22.5-22.4,38.4-22.4c24.3,0,44.1,19.8,44.1,44.1
		c0,4.7-0.7,9.2-2.1,13.6c2.5-0.8,5.1-1.1,7.7-1.1c14.9,0,27,12.1,27,27S185.9,115.9,171,115.9z M41,55c-15.4,0-28,12.5-28,28
		s12.5,28,28,28h130c12.1,0,22-9.9,22-22s-9.9-22-22-22c-3.9,0-7.7,1-11.1,3c-0.9,0.6-2.2,0.4-3-0.3c-0.8-0.8-1-1.9-0.5-2.9
		c2.6-5.4,4-11.2,4-17.2c0-21.6-17.5-39.1-39.1-39.1c-15.1,0-28.6,8.5-35.2,22.1c-0.3,0.7-0.9,1.2-1.6,1.3c-0.7,0.2-1.5,0-2.1-0.4
		c-3.4-2.5-7.5-3.8-11.7-3.8c-11,0-19.9,8.9-19.9,19.9c0,1.1,0.1,2.3,0.3,3.5c0.2,0.8-0.1,1.7-0.8,2.3C49.7,56,48.8,56.2,48,56
		C45.7,55.3,43.3,55,41,55z"/>
	<g>
		<path class="st0" d="M41.2,178.7c-0.1,0-0.3,0-0.4,0c-1.4-0.2-2.3-1.5-2-2.9l2.5-14.3c0.2-1.4,1.5-2.3,2.9-2s2.3,1.5,2,2.9
			l-2.5,14.3C43.4,177.8,42.4,178.7,41.2,178.7z"/>
		<path class="st0" d="M45.5,154c-0.1,0-0.3,0-0.4,0c-1.4-0.2-2.3-1.5-2-2.9l4.2-23.9c0.2-1.4,1.5-2.3,2.9-2s2.3,1.5,2,2.9L48,152
			C47.8,153.2,46.7,154,45.5,154z"/>
	</g>
	<g>
		<path class="st0" d="M62,194.6c-0.1,0-0.3,0-0.4,0c-1.4-0.2-2.3-1.5-2-2.9l5.1-28.9c0.2-1.4,1.5-2.3,2.9-2c1.4,0.2,2.3,1.5,2,2.9
			l-5.1,28.9C64.2,193.8,63.2,194.6,62,194.6z"/>
		<path class="st0" d="M72.8,133c-0.1,0-0.3,0-0.4,0c-1.4-0.2-2.3-1.5-2-2.9l1-5.5c0.2-1.4,1.5-2.3,2.9-2s2.3,1.5,2,2.9l-1,5.5
			C75.1,132.2,74,133,72.8,133z"/>
		<path class="st0" d="M68.8,155.6c-0.1,0-0.3,0-0.4,0c-1.4-0.2-2.3-1.5-2-2.9l2.3-13.3c0.2-1.4,1.5-2.3,2.9-2s2.3,1.5,2,2.9
			l-2.3,13.3C71.1,154.8,70,155.6,68.8,155.6z"/>
	</g>
	<g>
		<path class="st0" d="M86,178.7c-0.1,0-0.3,0-0.4,0c-1.4-0.2-2.3-1.5-2-2.9l4.1-23.1c0.2-1.4,1.5-2.3,2.9-2c1.4,0.2,2.3,1.5,2,2.9
			l-4.1,23.1C88.3,177.8,87.2,178.7,86,178.7z"/>
		<path class="st0" d="M91.8,145.8c-0.1,0-0.3,0-0.4,0c-1.4-0.2-2.3-1.5-2-2.9l2.7-15.4c0.2-1.4,1.5-2.3,2.9-2s2.3,1.5,2,2.9
			l-2.7,15.4C94.1,144.9,93,145.8,91.8,145.8z"/>
	</g>
	<g>
		<path class="st0" d="M107.6,185c-0.1,0-0.3,0-0.4,0c-1.4-0.2-2.3-1.5-2-2.9l2.4-13.4c0.2-1.4,1.5-2.3,2.9-2s2.3,1.5,2,2.9
			l-2.4,13.4C109.8,184.1,108.8,185,107.6,185z"/>
		<path class="st0" d="M111.7,161.9c-0.1,0-0.3,0-0.4,0c-1.4-0.2-2.3-1.5-2-2.9l3.5-19.6c0.2-1.4,1.5-2.3,2.9-2s2.3,1.5,2,2.9
			l-3.5,19.6C113.9,161,112.9,161.9,111.7,161.9z"/>
		<path class="st0" d="M116.6,133.9c-0.1,0-0.3,0-0.4,0c-1.4-0.2-2.3-1.5-2-2.9l1.3-7.2c0.2-1.4,1.5-2.3,2.9-2s2.3,1.5,2,2.9
			l-1.3,7.2C118.8,133.1,117.8,133.9,116.6,133.9z"/>
	</g>
	<g>
		<path class="st0" d="M131.6,172.9c-0.1,0-0.3,0-0.4,0c-1.4-0.2-2.3-1.5-2-2.9l1.5-8.6c0.2-1.4,1.5-2.3,2.9-2s2.3,1.5,2,2.9
			l-1.5,8.6C133.9,172,132.8,172.9,131.6,172.9z"/>
		<path class="st0" d="M134.9,154c-0.1,0-0.3,0-0.4,0c-1.4-0.2-2.3-1.5-2-2.9l3.7-21.1c0.2-1.4,1.5-2.3,2.9-2c1.4,0.2,2.3,1.5,2,2.9
			l-3.7,21.1C137.2,153.2,136.1,154,134.9,154z"/>
	</g>
	<g>
		<path class="st0" d="M153.1,178.7c-0.1,0-0.3,0-0.4,0c-1.4-0.2-2.3-1.5-2-2.9l2.5-14.3c0.2-1.4,1.5-2.3,2.9-2s2.3,1.5,2,2.9
			l-2.5,14.3C155.3,177.8,154.2,178.7,153.1,178.7z"/>
		<path class="st0" d="M157.4,154c-0.1,0-0.3,0-0.4,0c-1.4-0.2-2.3-1.5-2-2.9l4.7-26.7c0.2-1.4,1.5-2.3,2.9-2s2.3,1.5,2,2.9
			l-4.7,26.6C159.6,153.2,158.6,154,157.4,154z"/>
	</g>
	<path class="st0" d="M61.7,90.6c-0.8,0-1.6-0.4-2.1-1.1c-2.7-3.9-4.2-8.6-4.2-13.4c0-13,10.6-23.6,23.6-23.6
		c7.4,0,14.2,3.4,18.8,9.2c0.8,1.1,0.6,2.7-0.5,3.5c-1.1,0.8-2.7,0.6-3.5-0.5c-3.6-4.6-8.9-7.3-14.8-7.3c-10.3,0-18.6,8.4-18.6,18.6
		c0,3.8,1.1,7.4,3.3,10.6c0.8,1.1,0.5,2.7-0.6,3.5C62.7,90.5,62.2,90.6,61.7,90.6z"/>
</g>
</svg>
