<?xml version="1.0" encoding="utf-8"?>
<!-- Generator: Adobe Illustrator 28.1.0, SVG Export Plug-In . SVG Version: 6.00 Build 0)  -->
<svg version="1.1" id="Calque_1" xmlns="http://www.w3.org/2000/svg" xmlns:xlink="http://www.w3.org/1999/xlink" x="0px" y="0px"
	 viewBox="0 0 200 200" style="enable-background:new 0 0 200 200;" xml:space="preserve">
<style type="text/css">
	.st0{fill:#021F42;}
</style>
<g>
	<path class="st0" d="M168,78c-2.6,0-5.2,0.4-7.7,1.1c1.4-4.4,2.1-8.9,2.1-13.6c0-24.3-19.8-44.1-44.1-44.1
		c-15.8,0-30.6,8.7-38.4,22.4c-3.7-2.1-7.9-3.2-12.2-3.2c-13.8,0-24.9,11.2-24.9,24.9c0,0.3,0,0.6,0,0.9c-1.6-0.2-3.2-0.3-4.8-0.3
		c-18.2,0-33,14.8-33,33s14.8,33,33,33h22.7c-0.2,1.7-0.3,3.4-0.3,5.1c0,22.9,18.6,41.5,41.5,41.5s41.5-18.6,41.5-41.5
		c0-1.7-0.1-3.4-0.3-5.1H168c14.9,0,27-12.1,27-27C195,90.1,182.9,78,168,78z M101.8,173.5c-20.1,0-36.5-16.4-36.5-36.5
		s16.4-36.5,36.5-36.5c20.1,0,36.5,16.4,36.5,36.5S121.9,173.5,101.8,173.5z M168,127h-26c-4.5-18-20.8-31.4-40.2-31.4
		S66.1,109,61.6,127H38c-15.4,0-28-12.6-28-28s12.5-28,28-28c2.4,0,4.8,0.3,7,0.9c0.8,0.2,1.7,0,2.3-0.6c0.6-0.6,0.9-1.4,0.8-2.3
		c-0.2-1.3-0.3-2.4-0.3-3.5c0-11,9-19.9,19.9-19.9c4.2,0,8.3,1.3,11.7,3.8c0.6,0.4,1.4,0.6,2.1,0.4s1.3-0.7,1.6-1.3
		c6.6-13.6,20.1-22.1,35.2-22.1c21.6,0,39.1,17.5,39.1,39.1c0,6-1.3,11.8-4,17.2c-0.5,1-0.3,2.2,0.5,2.9s2,0.9,3,0.3
		c3.4-2,7.2-3,11.1-3c12.1,0,22,9.9,22,22C190,117.2,180.1,127,168,127z"/>
	<path class="st0" d="M76.2,68.6c-13,0-23.6,10.6-23.6,23.6c0,4.8,1.4,9.4,4.2,13.4c0.5,0.7,1.3,1.1,2.1,1.1c0.5,0,1-0.1,1.4-0.4
		c1.1-0.8,1.4-2.3,0.6-3.5c-2.1-3.1-3.3-6.8-3.3-10.6c0-10.3,8.4-18.6,18.6-18.6c5.8,0,11.2,2.7,14.8,7.3c0.8,1.1,2.4,1.3,3.5,0.5
		c1.1-0.8,1.3-2.4,0.5-3.5C90.4,72,83.6,68.6,76.2,68.6z"/>
	<path class="st0" d="M101.8,105.6c-17.3,0-31.5,14.1-31.5,31.4c0,7.5,2.7,14.8,7.6,20.5c0.4,0.5,1.1,0.8,1.8,0.9c0,0,0.1,0,0.1,0
		c0.7,0,1.3-0.3,1.8-0.7l15.9-15.9c0.8-0.8,0.9-1.9,0.5-2.9c-0.3-0.6-0.4-1.2-0.4-1.8c0-0.5,0.1-1,0.3-1.5l1.8,2.8
		c0.5,0.8,1.3,1.2,2.1,1.2c0.4,0,0.9-0.1,1.3-0.4c1.2-0.7,1.5-2.3,0.8-3.4l-1.8-2.8c2.1,0.2,3.8,2,3.8,4.1c0,0.6-0.2,1.3-0.4,1.8
		c-0.5,1-0.3,2.1,0.5,2.9l15.9,15.9c0.5,0.5,1.2,0.8,1.9,0.7c0.7,0,1.3-0.3,1.8-0.9c4.9-5.7,7.6-13,7.6-20.5
		C133.2,119.7,119.1,105.6,101.8,105.6z M123.5,152.2l-12.8-12.8c0.2-0.8,0.3-1.5,0.3-2.3c0-5.1-4.1-9.2-9.2-9.2
		c-0.9,0-1.7,0.1-2.6,0.4l-6.4-10.3c-0.7-1.2-2.3-1.5-3.4-0.8s-1.5,2.3-0.8,3.4l6.5,10.3c-1.5,1.6-2.4,3.8-2.4,6.1
		c0,0.8,0.1,1.6,0.3,2.3l-12.8,12.8c-3.1-4.4-4.8-9.7-4.8-15.1c0-14.6,11.9-26.4,26.5-26.4s26.4,11.9,26.4,26.4
		C128.2,142.5,126.6,147.8,123.5,152.2z"/>
</g>
</svg>
