<?xml version="1.0" encoding="utf-8"?>
<!-- Generator: Adobe Illustrator 28.1.0, SVG Export Plug-In . SVG Version: 6.00 Build 0)  -->
<svg version="1.1" id="Calque_1" xmlns="http://www.w3.org/2000/svg" xmlns:xlink="http://www.w3.org/1999/xlink" x="0px" y="0px"
	 viewBox="0 0 200 200" style="enable-background:new 0 0 200 200;" xml:space="preserve">
<style type="text/css">
	.st0{fill:#BAF0FC;}
</style>
<g>
	<path class="st0" d="M168.01,78.03c-2.62,0-5.22,0.39-7.72,1.14c1.42-4.37,2.14-8.92,2.14-13.61c0-24.32-19.78-44.1-44.1-44.1
		c-15.84,0-30.61,8.7-38.39,22.39c-3.73-2.12-7.92-3.23-12.24-3.23c-13.75,0-24.94,11.19-24.94,24.94c0,0.29,0.01,0.57,0.02,0.86
		c-1.59-0.23-3.19-0.35-4.81-0.35C19.79,66.07,5,80.86,5,99.04s14.79,32.97,32.97,32.97h22.66c-0.2,1.66-0.32,3.35-0.32,5.06
		c0,22.86,18.6,41.46,41.46,41.46c22.86,0,41.46-18.6,41.46-41.46c0-1.71-0.12-3.4-0.32-5.06h25.09c14.88,0,26.99-12.11,26.99-26.99
		C195,90.14,182.89,78.03,168.01,78.03z M101.77,173.54c-20.11,0-36.46-16.36-36.46-36.46s16.36-36.46,36.46-36.46
		c20.11,0,36.46,16.36,36.46,36.46S121.88,173.54,101.77,173.54z M168.01,127.01H142c-4.51-18.02-20.83-31.4-40.22-31.4
		c-19.39,0-35.72,13.39-40.22,31.4H37.97C22.55,127.01,10,114.46,10,99.04c0-15.42,12.55-27.97,27.97-27.97
		c2.38,0,4.75,0.3,7.04,0.89c0.82,0.21,1.7-0.01,2.33-0.59c0.62-0.58,0.91-1.44,0.76-2.27c-0.23-1.26-0.33-2.42-0.33-3.54
		c0-11,8.95-19.94,19.94-19.94c4.22,0,8.27,1.32,11.71,3.83c0.6,0.44,1.36,0.58,2.08,0.4c0.72-0.18,1.32-0.67,1.64-1.33
		c6.6-13.6,20.09-22.06,35.19-22.06c21.56,0,39.1,17.54,39.1,39.1c0,6.03-1.34,11.83-3.99,17.22c-0.49,0.99-0.27,2.18,0.54,2.93
		c0.81,0.75,2.01,0.88,2.96,0.33c3.37-1.97,7.2-3.01,11.07-3.01c12.13,0,21.99,9.87,21.99,21.99
		C190,117.15,180.13,127.01,168.01,127.01z"/>
	<path class="st0" d="M76.17,68.61c-13.04,0-23.64,10.61-23.64,23.64c0,4.81,1.43,9.43,4.15,13.38c0.48,0.71,1.27,1.08,2.06,1.08
		c0.49,0,0.98-0.14,1.41-0.44c1.14-0.78,1.43-2.34,0.64-3.48c-2.14-3.11-3.27-6.76-3.27-10.55c0-10.28,8.36-18.64,18.64-18.64
		c5.83,0,11.22,2.65,14.78,7.28c0.84,1.09,2.41,1.3,3.51,0.46c1.09-0.84,1.3-2.41,0.46-3.51C90.4,71.97,83.56,68.61,76.17,68.61z"/>
	<path class="st0" d="M101.77,105.63c-17.34,0-31.45,14.11-31.45,31.44c0,7.53,2.71,14.81,7.62,20.52c0.45,0.53,1.11,0.84,1.8,0.87
		c0.03,0,0.06,0,0.09,0c0.66,0,1.3-0.26,1.77-0.73l15.94-15.94c0.76-0.76,0.95-1.91,0.48-2.87c-0.29-0.58-0.43-1.2-0.43-1.84
		c0-0.53,0.11-1.04,0.29-1.5l1.77,2.83c0.47,0.76,1.29,1.17,2.12,1.17c0.45,0,0.91-0.12,1.32-0.38c1.17-0.73,1.53-2.27,0.79-3.45
		l-1.76-2.82c2.13,0.19,3.82,1.96,3.82,4.14c0,0.64-0.15,1.26-0.43,1.84c-0.47,0.96-0.28,2.12,0.47,2.87l15.94,15.94
		c0.49,0.49,1.15,0.76,1.86,0.73c0.69-0.03,1.35-0.34,1.8-0.87c4.92-5.7,7.62-12.99,7.62-20.52
		C133.22,119.73,119.11,105.63,101.77,105.63z M123.47,152.19l-12.81-12.81c0.2-0.75,0.3-1.52,0.3-2.31c0-5.06-4.12-9.18-9.18-9.18
		c-0.89,0-1.74,0.13-2.56,0.37l-6.45-10.33c-0.73-1.17-2.27-1.53-3.45-0.79s-1.53,2.27-0.79,3.45l6.46,10.33
		c-1.48,1.63-2.39,3.78-2.39,6.15c0,0.79,0.1,1.56,0.3,2.31l-12.81,12.81c-3.08-4.42-4.75-9.69-4.75-15.12
		c0-14.58,11.86-26.44,26.45-26.44s26.45,11.86,26.45,26.44C128.22,142.49,126.55,147.77,123.47,152.19z"/>
</g>
</svg>
