<?xml version="1.0" encoding="utf-8"?>
<!-- Generator: Adobe Illustrator 28.1.0, SVG Export Plug-In . SVG Version: 6.00 Build 0)  -->
<svg version="1.1" id="Calque_1" xmlns="http://www.w3.org/2000/svg" xmlns:xlink="http://www.w3.org/1999/xlink" x="0px" y="0px"
	 viewBox="0 0 200 200" style="enable-background:new 0 0 200 200;" xml:space="preserve">
<style type="text/css">
	.st0{fill:#021F42;}
</style>
<g>
	<path class="st0" d="M141.2,127.6H40.3C23.6,127.6,10,114,10,97.3S23.6,67,40.3,67c2.4,0,4.7,0.3,7.1,0.8c0.9,0.2,1.9-0.1,2.5-0.8
		s0.8-1.7,0.4-2.6c-0.8-2-1.2-4-1.2-6.1c0-9,7.3-16.2,16.2-16.2c8.4,0,15.4,6.5,16.2,14.8c-6.7,1.4-12.3,6-14.9,12.6
		c-0.5,1.3,0.1,2.7,1.4,3.2c1.3,0.5,2.7-0.1,3.2-1.4c2.4-6,8.2-9.9,14.7-9.9c8.7,0,15.8,7.1,15.8,15.8c0,1.8-0.3,3.5-0.9,5.2
		c-0.4,1.3,0.2,2.7,1.6,3.2c0.3,0.1,0.5,0.1,0.8,0.1c1,0,2-0.7,2.4-1.7c0.8-2.2,1.1-4.5,1.1-6.8c0-11.2-8.9-20.4-20-20.8
		C90.2,45,100.9,37,113.1,37c15.2,0,27.6,12.4,27.6,27.6c0,1.4,1.1,2.5,2.5,2.5h13c1.4,0,2.5-1.1,2.5-2.5s-1.1-2.5-2.5-2.5h-10.6
		C144.2,45.2,130.2,32,113,32c-12.2,0-23.1,6.8-28.7,17.1c-3.5-7.1-10.8-12-19.1-12c-11.7,0-21.2,9.5-21.2,21.2
		c0,1.3,0.1,2.6,0.4,3.9c-1.4-0.2-2.8-0.2-4.1-0.2C20.8,62,5,77.9,5,97.3s15.8,35.3,35.3,35.3h100.9c8.4,0,15.2,6.8,15.2,15.2
		s-6.8,15.2-15.2,15.2s-15.2-6.8-15.2-15.2c0-1.4-1.1-2.5-2.5-2.5s-2.5,1.1-2.5,2.5c0,11.1,9.1,20.2,20.2,20.2s20.2-9.1,20.2-20.2
		C161.4,136.7,152.3,127.6,141.2,127.6z"/>
	<path class="st0" d="M174.8,80.8c-6.3,0-12.1,2.8-16,7.8c-0.9,1.1-0.6,2.7,0.4,3.5s2.7,0.7,3.5-0.4c2.9-3.7,7.3-5.9,12-5.9
		c8.4,0,15.2,6.8,15.2,15.2s-6.8,15.2-15.2,15.2H62.7c-1.4,0-2.5,1.1-2.5,2.5s1.1,2.5,2.5,2.5h112.1c11.1,0,20.2-9.1,20.2-20.2
		S185.9,80.8,174.8,80.8z"/>
	<path class="st0" d="M32.2,110.7c0,1.4,1.1,2.5,2.5,2.5h49c1.4,0,2.5-1.1,2.5-2.5s-1.1-2.5-2.5-2.5h-49
		C33.3,108.2,32.2,109.3,32.2,110.7z"/>
	<path class="st0" d="M122.5,98.5c-1.4,0-2.5,1.1-2.5,2.5s1.1,2.5,2.5,2.5h28.7c1.4,0,2.5-1.1,2.5-2.5s-1.1-2.5-2.5-2.5H122.5z"/>
	<path class="st0" d="M37.6,103c0.5,0,0.9-0.4,0.9-0.9V82.8c0-0.5-0.4-0.9-0.9-0.9h-1c-0.5,0-0.9,0.4-0.9,0.9v19.2
		c0,0.5,0.4,0.9,0.9,0.9C36.7,103,37.6,103,37.6,103z"/>
	<path class="st0" d="M62.8,92.4c0-3.3-0.9-5.9-2.8-7.9s-4.3-3-7.2-3c-3,0-5.4,1-7.3,3s-2.8,4.6-2.8,7.9c0,3.3,0.9,5.9,2.8,7.9
		s4.3,3,7.3,3c1.7,0,3.3-0.4,4.8-1.1c0.3-0.2,0.7-0.2,1,0.1l2.3,1.8c0.4,0.3,1,0.2,1.3-0.1l0.5-0.6c0.3-0.4,0.3-1-0.1-1.3l-1.6-1.3
		c-0.4-0.3-0.4-0.9-0.1-1.3C62,97.7,62.8,95.3,62.8,92.4z M58.5,97.8c-0.3,0.5-0.9,0.6-1.4,0.2l-1.1-0.8c-0.4-0.3-1-0.2-1.3,0.1
		l-0.5,0.6c-0.3,0.4-0.3,1,0.1,1.3l0,0c0.6,0.5,0.4,1.5-0.4,1.6c-0.5,0.1-1,0.1-1.5,0.1c-2.1,0-3.8-0.8-5.2-2.2s-2-3.6-2-6.3
		s0.7-4.8,2-6.3c1.4-1.5,3.1-2.2,5.2-2.2c2.1,0,3.8,0.8,5.1,2.2s2,3.6,2,6.3C59.9,94.6,59.4,96.4,58.5,97.8z"/>
	<path class="st0" d="M66.4,103c0.4,0,0.7-0.2,0.9-0.6l1.9-5.2c0.1-0.4,0.5-0.6,0.9-0.6h7.5c0.4,0,0.7,0.2,0.9,0.6l2,5.2
		c0.1,0.4,0.5,0.6,0.9,0.6h1.1c0.7,0,1.1-0.7,0.8-1.3l-7.8-19.2c-0.1-0.3-0.5-0.6-0.8-0.6h-1.8c-0.4,0-0.7,0.2-0.9,0.6l-7.4,19.2
		c-0.2,0.6,0.2,1.2,0.9,1.2L66.4,103L66.4,103z M70.6,93.1l2.2-6.2c0.3-0.8,1.4-0.8,1.7,0l2.3,6.2c0.2,0.6-0.2,1.2-0.9,1.2h-4.6
		C70.8,94.4,70.3,93.7,70.6,93.1z"/>
</g>
</svg>
