<?xml version="1.0" encoding="utf-8"?>
<!-- Generator: Adobe Illustrator 28.1.0, SVG Export Plug-In . SVG Version: 6.00 Build 0)  -->
<svg version="1.1" id="Calque_1" xmlns="http://www.w3.org/2000/svg" xmlns:xlink="http://www.w3.org/1999/xlink" x="0px" y="0px"
	 viewBox="0 0 200 200" style="enable-background:new 0 0 200 200;" xml:space="preserve">
<style type="text/css">
	.st0{fill:#BAF0FC;}
</style>
<g>
	<path class="st0" d="M141.2,127.62H40.3c-16.71,0-30.3-13.59-30.3-30.3c0-16.71,13.59-30.3,30.3-30.3c2.36,0,4.74,0.28,7.06,0.84
		c0.91,0.22,1.87-0.09,2.48-0.8s0.77-1.7,0.42-2.57c-0.8-1.96-1.2-4.01-1.2-6.11c0-8.96,7.29-16.24,16.24-16.24
		c8.36,0,15.42,6.48,16.16,14.79c-6.66,1.44-12.26,6.05-14.89,12.57c-0.52,1.28,0.1,2.74,1.38,3.25c1.28,0.52,2.74-0.1,3.25-1.38
		c2.43-6.02,8.2-9.92,14.7-9.92c8.74,0,15.84,7.11,15.84,15.84c0,1.77-0.29,3.51-0.86,5.17c-0.45,1.31,0.24,2.73,1.55,3.18
		c0.27,0.09,0.54,0.14,0.82,0.14c1.04,0,2.01-0.65,2.36-1.69c0.75-2.18,1.14-4.47,1.14-6.8c0-11.22-8.92-20.37-20.03-20.8
		c3.51-11.54,14.18-19.52,26.34-19.52c15.2,0,27.56,12.36,27.56,27.56c0,1.38,1.12,2.5,2.5,2.5h13c1.38,0,2.5-1.12,2.5-2.5
		s-1.12-2.5-2.5-2.5h-10.6c-1.28-16.79-15.35-30.06-32.47-30.06c-12.18,0-23.1,6.76-28.68,17.12C80.9,42,73.58,37.13,65.3,37.13
		c-11.71,0-21.24,9.53-21.24,21.24c0,1.31,0.12,2.61,0.36,3.89c-1.37-0.16-2.75-0.24-4.12-0.24C20.84,62.02,5,77.86,5,97.32
		s15.84,35.3,35.3,35.3h100.9c8.38,0,15.21,6.82,15.21,15.21s-6.82,15.21-15.21,15.21s-15.21-6.82-15.21-15.21
		c0-1.38-1.12-2.5-2.5-2.5s-2.5,1.12-2.5,2.5c0,11.14,9.06,20.21,20.21,20.21s20.21-9.06,20.21-20.21
		C161.41,136.69,152.34,127.62,141.2,127.62z"/>
	<path class="st0" d="M174.79,80.78c-6.28,0-12.1,2.85-15.96,7.82c-0.85,1.09-0.65,2.66,0.44,3.51c1.09,0.85,2.66,0.65,3.51-0.44
		c2.91-3.74,7.29-5.88,12.01-5.88c8.38,0,15.21,6.82,15.21,15.21c0,8.39-6.82,15.21-15.21,15.21H62.66c-1.38,0-2.5,1.12-2.5,2.5
		s1.12,2.5,2.5,2.5h112.14c11.14,0,20.21-9.06,20.21-20.21S185.94,80.78,174.79,80.78z"/>
	<path class="st0" d="M32.21,110.73c0,1.38,1.12,2.5,2.5,2.5h49.05c1.38,0,2.5-1.12,2.5-2.5s-1.12-2.5-2.5-2.5H34.71
		C33.33,108.23,32.21,109.35,32.21,110.73z"/>
	<path class="st0" d="M122.53,98.48c-1.38,0-2.5,1.12-2.5,2.5c0,1.38,1.12,2.5,2.5,2.5h28.71c1.38,0,2.5-1.12,2.5-2.5
		c0-1.38-1.12-2.5-2.5-2.5H122.53z"/>
	<path class="st0" d="M37.63,102.98c0.51,0,0.92-0.41,0.92-0.92V82.84c0-0.51-0.41-0.92-0.92-0.92h-0.96
		c-0.51,0-0.92,0.41-0.92,0.92v19.22c0,0.51,0.41,0.92,0.92,0.92H37.63z"/>
	<path class="st0" d="M62.76,92.45c0-3.28-0.94-5.91-2.82-7.9c-1.88-1.99-4.29-2.99-7.24-2.99c-2.96,0-5.38,1-7.27,2.99
		c-1.89,1.99-2.83,4.63-2.83,7.9c0,3.27,0.94,5.9,2.83,7.89s4.31,3,7.27,3c1.74,0,3.33-0.37,4.75-1.12
		c0.33-0.17,0.72-0.15,1.01,0.08l2.29,1.81c0.39,0.31,0.96,0.25,1.28-0.13l0.46-0.55c0.34-0.4,0.27-1-0.14-1.32l-1.62-1.27
		c-0.39-0.31-0.44-0.86-0.14-1.26C62.04,97.65,62.76,95.28,62.76,92.45z M58.54,97.79c-0.29,0.47-0.93,0.58-1.37,0.24l-1.07-0.85
		c-0.39-0.31-0.96-0.25-1.28,0.13l-0.47,0.56c-0.33,0.4-0.27,0.99,0.14,1.32h0c0.61,0.48,0.39,1.48-0.37,1.63
		c-0.47,0.09-0.96,0.14-1.45,0.14c-2.09,0-3.81-0.75-5.16-2.25c-1.35-1.5-2.03-3.58-2.03-6.26c0-2.68,0.68-4.77,2.03-6.26
		c1.36-1.49,3.09-2.24,5.21-2.24c2.08,0,3.79,0.75,5.13,2.24s2.01,3.58,2.01,6.26C59.87,94.59,59.43,96.37,58.54,97.79z"/>
	<path class="st0" d="M66.38,102.98c0.39,0,0.73-0.24,0.87-0.61l1.89-5.19c0.13-0.36,0.48-0.61,0.87-0.61h7.54
		c0.38,0,0.72,0.24,0.86,0.59l1.99,5.22c0.14,0.36,0.48,0.59,0.86,0.59h1.14c0.65,0,1.1-0.66,0.85-1.27l-7.84-19.22
		c-0.14-0.35-0.48-0.57-0.85-0.57H72.8c-0.38,0-0.72,0.23-0.86,0.59l-7.38,19.22c-0.23,0.6,0.21,1.25,0.86,1.25H66.38z M70.56,93.12
		l2.24-6.2c0.29-0.8,1.42-0.81,1.73-0.01l2.35,6.2c0.23,0.6-0.22,1.25-0.86,1.25h-4.59C70.79,94.36,70.34,93.73,70.56,93.12z"/>
</g>
</svg>
