<?xml version="1.0" encoding="utf-8"?>
<!-- Generator: Adobe Illustrator 28.1.0, SVG Export Plug-In . SVG Version: 6.00 Build 0)  -->
<svg version="1.1" id="Calque_1" xmlns="http://www.w3.org/2000/svg" xmlns:xlink="http://www.w3.org/1999/xlink" x="0px" y="0px"
	 viewBox="0 0 200 200" style="enable-background:new 0 0 200 200;" xml:space="preserve">
<style type="text/css">
	.st0{fill:#BAF0FC;}
</style>
<g>
	<path class="st0" d="M141.4,76.1h-94c-1.4,0-2.5-1.1-2.5-2.5s1.1-2.5,2.5-2.5h94c9.6,0,17.5-7.8,17.5-17.5s-7.9-17.5-17.5-17.5
		s-17.5,7.8-17.5,17.5c0,1.4-1.1,2.5-2.5,2.5s-2.5-1.1-2.5-2.5c0-12.4,10.1-22.5,22.5-22.5s22.5,10.1,22.5,22.5
		S153.9,76.1,141.4,76.1z"/>
	<path class="st0" d="M158.1,168.9c-12.4,0-22.5-10.1-22.5-22.5c0-1.4,1.1-2.5,2.5-2.5s2.5,1.1,2.5,2.5c0,9.6,7.9,17.5,17.5,17.5
		s17.5-7.9,17.5-17.5s-7.9-17.5-17.5-17.5h-114c-1.4,0-2.5-1.1-2.5-2.5s1.1-2.5,2.5-2.5h114c12.4,0,22.5,10.1,22.5,22.5
		S170.5,168.9,158.1,168.9z"/>
	<path class="st0" d="M176,116H69.3c-1.4,0-2.5-1.1-2.5-2.5s1.1-2.5,2.5-2.5H176c9.6,0,17.5-7.8,17.5-17.5S185.7,76,176,76
		c-5.4,0-10.5,2.5-13.8,6.8c-0.9,1.1-2.4,1.3-3.5,0.4s-1.3-2.4-0.4-3.5C162.5,74.2,169,71,176,71c12.4,0,22.5,10.1,22.5,22.5
		S188.4,116,176,116z"/>
	<path class="st0" d="M144,91.1H88.6c-1.4,0-2.5-1.1-2.5-2.5s1.1-2.5,2.5-2.5H144c1.4,0,2.5,1.1,2.5,2.5S145.4,91.1,144,91.1z"/>
	<path class="st0" d="M90.9,103.6H35.5c-1.4,0-2.5-1.1-2.5-2.5s1.1-2.5,2.5-2.5h55.4c1.4,0,2.5,1.1,2.5,2.5S92.3,103.6,90.9,103.6z"
		/>
</g>
</svg>
